<svg
  xmlns="http://www.w3.org/2000/svg"
  width="24"
  height="24"
  viewBox="0 0 24 24"
  style="fill: url(#A);"
>
  <defs>
    <linearGradient
      id="A"
      x1="2.88"
      y1="37.632"
      x2="73.137"
      y2="37.632"
      gradientUnits="userSpaceOnUse"
    >
      <stop stop-color="#6366f1" />
      <stop offset=".5" stop-color="#8b5cf6" />
      <stop offset="1" stop-color="#d946ef" />
    </linearGradient>
  </defs>
  <path
    d="M13 16.493C13 18.427 14.573 20 16.507 20s3.507-1.573 3.507-3.507c0-.177-.027-.347-.053-.517H20V6h2V4h-3a1 1 0 0 0-1 1v8.333a3.465 3.465 0 0 0-1.493-.346A3.51 3.51 0 0 0 13 16.493zM2 5h14v2H2z"
  />
  <path d="M2 9h14v2H2zm0 4h9v2H2zm0 4h9v2H2z" />
</svg>
