<svg
  xmlns="http://www.w3.org/2000/svg"
  width="24"
  height="24"
  viewBox="0 0 24 24"
  style="fill: url(#A);"
>
  <defs>
    <linearGradient
      id="A"
      x1="2.88"
      y1="37.632"
      x2="73.137"
      y2="37.632"
      gradientUnits="userSpaceOnUse"
    >
      <stop stop-color="#6366f1" />
      <stop offset=".5" stop-color="#8b5cf6" />
      <stop offset="1" stop-color="#d946ef" />
    </linearGradient>
  </defs>
  <path
    d="m19.684 5.821-9-3.272A1.998 1.998 0 0 0 8 4.428v6.129A3.953 3.953 0 0 0 6 10c-2.206 0-4 1.794-4 4s1.794 4 4 4 4-1.794 4-4V4.428L19 7.7v6.856A3.962 3.962 0 0 0 17 14c-2.206 0-4 1.794-4 4s1.794 4 4 4 4-1.794 4-4V7.7c0-.838-.529-1.594-1.316-1.879zM6 16c-1.103 0-2-.897-2-2s.897-2 2-2 2 .897 2 2-.897 2-2 2zm11 4c-1.103 0-2-.897-2-2s.897-2 2-2 2 .897 2 2-.897 2-2 2z"
  />
</svg>
